<?xml version="1.0" encoding="utf-8"?>
<!-- Generator: Adobe Illustrator 25.0.1, SVG Export Plug-In . SVG Version: 6.00 Build 0)  -->
<svg version="1.1" id="Layer_1" xmlns="http://www.w3.org/2000/svg" xmlns:xlink="http://www.w3.org/1999/xlink" x="0px" y="0px"
	 viewBox="0 0 595.28 85.14" style="enable-background:new 0 0 595.28 85.14;" xml:space="preserve">
<style type="text/css">
	.st0{fill:#EDEBE4;}
</style>
<g>
	<g>
		<g>
			<g>
				<path class="st0" d="M77.23,50.43c0,6.81-4.18,18.99-36.07,18.99h-4.82C6.27,69.42,0,55.7,0,44.25v-1.82
					c0-11.27,5.81-24.62,36.07-24.62h5c31.89,0,36.35,14.9,36.35,26.62v2.73H24.26c0.73,5.09,4.91,8.99,14.81,8.99h0.09
					c11.72,0,13.54-4.81,13.72-5.91h24.35V50.43z M24.53,37.16H52.7c-1-4.63-4.72-7.36-14.08-7.36
					C29.26,29.8,25.71,32.8,24.53,37.16z"/>
				<path class="st0" d="M189.32,28.17c1.91-2.82,8.27-10.09,20.44-10.09h1.09c16.17,0,20.53,11.18,20.53,21.63v4.9H207.4v-1.73
					c0-5.45-2.36-10-8.81-10c-5.81,0-9.09,4.36-9.09,10.54v24.62h-24.71V19.17h24.53V28.17z"/>
				<path class="st0" d="M259.46,68.05h-24.72V0.46h24.72V68.05z"/>
				<path class="st0" d="M272.09,70.05h11.08c1.82,0,2.27-0.73,2.27-1.54v-0.09c0-1-0.73-2.36-2.09-4.91l-23.08-44.34h26.35
					l13.63,31.44l12.63-31.44h24.53l-23.53,50.97c-4.72,10.27-9.99,14.99-18.81,14.99h-22.99V70.05z"/>
				<path class="st0" d="M362.95,0.46V25.8c2-1.45,9.36-7.54,23.71-7.54h1.91c22.17,0,29.08,11.54,29.08,24.17v1.91
					c0,12.54-7.72,24.62-29.99,24.62h-1.82c-13.63,0-21.17-5.72-23.35-7.36c-0.64,1.72-1,4.36-1.27,6.45h-22.99V0.46H362.95z
					 M362.95,43.7c0,5.54,4.91,11.63,14.81,11.63h0.54c10.99,0,14.27-6.18,14.27-11.63v-0.36c0-5.81-3.27-11.63-14.27-11.63h-0.54
					c-10.17,0-14.81,5.82-14.81,11.63V43.7z"/>
				<path class="st0" d="M444.27,68.05h-24.71V19.17h24.71V68.05z"/>
				<path class="st0" d="M472.43,28.17c1.91-2.82,8.27-10.09,20.44-10.09h1.09c16.17,0,20.53,11.18,20.53,21.63v4.9h-23.99v-1.73
					c0-5.45-2.36-10-8.81-10c-5.81,0-9.09,4.36-9.09,10.54v24.62H447.9V19.17h24.53V28.17z"/>
				<path class="st0" d="M160.06,19.17v48.88h-24.62v-7.09c-1.63,1.82-8.27,7.99-23.53,7.99h-1.55c-21.35,0-29.62-11.72-29.62-24.71
					v-1.91c0-12.45,7.63-24.08,28.89-24.08h1.72c15.08,0,21.72,5.36,23.99,7.09v-6.17H160.06z M135.34,43.15
					c0-5.45-5-11.27-15.35-11.27h-0.45c-10.72,0-13.72,5.82-13.72,11.27v0.46c0,5.36,3.64,11.54,13.81,11.54h0.36
					c10.54,0,15.35-6.09,15.35-11.54V43.15z"/>
				<path class="st0" d="M595.28,0v67.6h-24.62v-7.09c-1.64,1.82-8.27,8-23.53,8h-1.55c-21.35,0-29.62-11.72-29.62-24.71v-1.91
					c0-12.45,7.63-24.08,28.89-24.08h1.73c15.08,0,21.72,5.36,23.99,7.09V0H595.28z M570.56,42.7c0-5.45-5-11.27-15.36-11.27h-0.45
					c-10.72,0-13.72,5.82-13.72,11.27v0.45c0,5.36,3.63,11.54,13.81,11.54h0.36c10.54,0,15.36-6.09,15.36-11.54V42.7z"/>
				<path class="st0" d="M445.34,7.94c0,4.39-6.01,7.95-13.42,7.95c-7.42,0-13.43-3.56-13.43-7.95c0-4.39,6.01-7.94,13.43-7.94
					C439.33,0,445.34,3.56,445.34,7.94z"/>
			</g>
		</g>
	</g>
</g>
</svg>
